<?xml version="1.0" encoding="utf-8"?>
<svg fill="none" height="556" viewBox="0 0 450 556" width="450" xmlns="http://www.w3.org/2000/svg" xmlns:bx="https://boxy-svg.com">
  <defs>
    <linearGradient id="a-0" href="#a" gradientUnits="userSpaceOnUse" x1="277" y1="-162" x2="277" y2="288"/>
    <radialGradient id="c-0" href="#c" gradientUnits="userSpaceOnUse" cx="79.895" cy="288" r="34" spreadMethod="pad"/>
    <radialGradient id="c-1" href="#c" gradientUnits="userSpaceOnUse" cx="18" cy="182" r="18"/>
  </defs>
  <linearGradient id="a">
    <stop offset="0" style="stop-color: rgb(79, 158, 151);"/>
    <stop offset="1" stop-opacity="0" style="stop-color: rgba(96, 99, 99, 0);"/>
  </linearGradient>
  <linearGradient id="c" bx:pinned="true">
    <stop offset="0" stop-opacity="0" style="stop-color: rgb(79, 158, 151);"/>
    <stop offset="1" stop-opacity=".08" style="stop-color: rgb(79, 158, 151);"/>
  </linearGradient>
  <linearGradient id="f" gradientUnits="userSpaceOnUse" x1="226.775" x2="292.157" y1="-66.1548" y2="351.421" href="#a"/>
  <linearGradient id="g">
    <stop offset="0" style="stop-color: rgb(79, 158, 151);"/>
    <stop offset="1" stop-color="#fff" stop-opacity="0"/>
  </linearGradient>
  <linearGradient id="h" gradientUnits="userSpaceOnUse" x1="184.521" x2="184.521" y1="182.159" y2="448.882" href="#g"/>
  <linearGradient id="i" gradientUnits="userSpaceOnUse" x1="356" x2="356" y1="110" y2="470" href="#g"/>
  <linearGradient id="j" gradientUnits="userSpaceOnUse" x1="118.524" x2="166.965" y1="29.2497" y2="338.63" href="#a"/>
  <circle cx="277" cy="63" r="225" style="fill: url(&quot;#a-0&quot;);"/>
  <circle cx="17.9997" cy="182" r="18" style="fill: url(&quot;#c-1&quot;);"/>
  <circle cx="76.9997" cy="288" r="34" style="fill: url(&quot;#c-0&quot;);"/>
  <circle cx="325.486" cy="302.87" fill="url(#f)" r="180" transform="matrix(.79138147 -.61132264 .61132264 .79138147 -117.248877 262.161255)"/>
  <circle cx="184.521" cy="315.521" opacity=".8" r="132.862" stroke="url(#h)" transform="matrix(-.42062417 .90723498 -.90723498 -.42062417 548.38668 280.832852)" style="fill-rule: nonzero;"/>
  <circle cx="356" cy="290" opacity=".8" r="179.5" stroke="url(#i)" transform="matrix(.8660254 -.5 .5 .8660254 -97.305044 216.852633)"/>
  <circle cx="191.659" cy="302.659" opacity=".8" r="133.362" transform="matrix(-.68605965 .72754529 -.72754529 -.68605965 543.346638 370.860526)" fill="url(#j)"/>
</svg>